<?xml version="1.0" standalone="no"?>
<!DOCTYPE svg PUBLIC "-//W3C//DTD SVG 20010904//EN"
 "http://www.w3.org/TR/2001/REC-SVG-20010904/DTD/svg10.dtd">
<svg version="1.0" xmlns="http://www.w3.org/2000/svg"
 width="300.000000pt" height="300.000000pt" viewBox="0 0 300.000000 300.000000"
 preserveAspectRatio="xMidYMid meet">
<metadata>
Created by potrace 1.14, written by Peter Selinger 2001-2017
</metadata>
<g transform="translate(0.000000,300.000000) scale(0.100000,-0.100000)"
fill="#000000" stroke="none">
<path d="M1458 2935 c-2 -1 -41 -5 -88 -8 -114 -8 -270 -40 -317 -65 -10 -6
-21 -11 -25 -11 -43 -8 -150 -54 -235 -103 -252 -145 -454 -359 -586 -624 -42
-82 -104 -281 -122 -389 -39 -226 -12 -519 66 -725 125 -328 346 -589 646
-759 138 -79 328 -147 458 -166 370 -52 685 7 980 183 546 325 814 981 653
1597 -82 311 -276 597 -538 791 -238 175 -498 264 -812 278 -42 2 -78 3 -80 1z
m227 -29 c17 -3 48 -8 70 -12 147 -21 361 -106 501 -197 115 -75 144 -99 234
-187 131 -129 206 -234 283 -395 99 -205 136 -359 141 -583 6 -235 -37 -431
-140 -647 -137 -289 -377 -527 -668 -665 -113 -54 -264 -102 -356 -114 -25 -4
-70 -10 -101 -14 -76 -11 -266 -7 -364 8 -404 59 -777 308 -993 661 -89 146
-152 310 -187 489 -19 92 -24 286 -12 405 49 480 362 920 802 1125 69 32 210
84 225 83 3 0 16 4 30 9 36 14 115 28 195 35 39 3 71 7 73 8 5 4 237 -4 267
-9z"/>
<path d="M1466 2823 c-1 -1 -26 -3 -56 -4 -30 -1 -62 -6 -71 -10 -13 -7 -111
-167 -183 -299 -10 -19 -25 -44 -32 -55 -8 -11 -14 -22 -14 -26 0 -3 301 -6
670 -6 369 0 670 2 670 6 0 4 -10 15 -22 25 -13 11 -39 33 -59 50 -54 47 -75
63 -106 83 -15 9 -30 20 -33 23 -20 20 -218 115 -291 140 -85 28 -223 58 -295
65 -65 6 -175 11 -178 8z"/>
<path d="M1065 2751 c-330 -115 -604 -351 -756 -650 -22 -44 -39 -87 -37 -95
4 -19 212 -375 219 -376 6 0 669 1133 669 1143 0 10 -8 8 -95 -22z"/>
<path d="M2120 2294 c0 -3 102 -179 226 -392 125 -213 235 -401 245 -419 22
-39 60 -102 77 -128 6 -11 15 -27 19 -35 3 -8 20 -37 37 -65 17 -27 38 -62 45
-78 8 -15 18 -24 22 -20 17 19 42 198 44 318 4 281 -63 513 -218 753 l-47 72
-225 0 c-124 0 -225 -2 -225 -6z"/>
<path d="M964 2071 c-2 -2 -4 -35 -4 -73 l0 -68 70 0 70 0 1 -337 c0 -353 2
-395 21 -453 28 -88 112 -163 213 -191 127 -35 283 -26 385 23 109 53 166 135
175 251 2 34 4 207 5 385 l0 322 70 0 70 0 0 73 0 72 -210 -2 c-115 -1 -214
-2 -220 -2 -6 -1 -10 -32 -10 -71 l0 -70 65 0 65 0 0 -332 c-1 -183 -5 -355
-10 -381 -20 -103 -86 -148 -220 -148 -128 0 -199 44 -220 137 -5 21 -9 193
-10 382 l0 342 65 0 c36 0 65 3 66 8 4 32 3 116 -3 125 -6 10 -424 18 -434 8z"/>
<path d="M207 1843 c-3 -5 -8 -28 -12 -53 -4 -25 -9 -48 -11 -52 -24 -38 -24
-360 0 -478 34 -174 101 -339 196 -484 l50 -76 225 0 c124 0 225 2 225 5 0 3
-289 501 -391 673 -9 15 -25 43 -36 62 -95 164 -235 403 -238 408 -2 2 -5 0
-8 -5z"/>
<path d="M1449 1825 c-65 -36 -80 -123 -29 -173 70 -71 183 -31 188 66 5 87
-85 148 -159 107z"/>
<path d="M1439 1467 c-58 -39 -65 -124 -13 -172 59 -55 161 -26 180 51 17 68
-39 144 -106 144 -15 0 -42 -10 -61 -23z"/>
<path d="M2450 1278 c-30 -51 -60 -102 -66 -113 -6 -11 -131 -226 -278 -478
-148 -252 -266 -460 -263 -463 7 -8 150 43 237 84 66 31 196 106 210 122 3 3
23 18 45 34 73 54 218 210 278 301 62 95 120 210 115 229 -5 19 -212 376 -218
376 -3 0 -30 -42 -60 -92z"/>
<path d="M555 572 c-12 -12 144 -138 246 -200 240 -145 496 -207 792 -192 32
2 64 8 72 14 15 12 225 365 225 378 0 5 -1330 4 -1335 0z"/>
</g>
</svg>
